<?xml version="1.0" encoding="UTF-8"?>
<svg width="600px" height="128px" viewBox="0 0 600 128" version="1.1" xmlns="http://www.w3.org/2000/svg" xmlns:xlink="http://www.w3.org/1999/xlink">
    <title>Group 16</title>
    <g id="Page-1" stroke="none" stroke-width="1" fill="none" fill-rule="evenodd">
        <g id="P1-Login_mobile" transform="translate(-180.000000, -209.000000)">
            <g id="Group" transform="translate(180.000000, 209.000000)">
                <path d="M77.5119617,25.9831075 L93.9266733,25.9831075 L93.9266733,34.92898 C96.0181572,31.5804265 98.5524828,29.0680937 101.530389,27.3927156 C104.506078,25.718806 107.644413,24.8803828 110.944655,24.8803828 C112.552636,24.8803828 113.88116,24.941319 114.927272,25.0639255 C115.972644,25.186532 116.89825,25.3296954 117.703349,25.4934155 L115.651788,41.0563705 C113.720732,40.5659443 111.346835,40.3207312 108.530835,40.3207312 C106.678885,40.3207312 104.910476,40.5468558 103.220433,40.9954343 C101.530389,41.445481 100.000775,42.2817017 98.633806,43.507033 C97.184775,44.8153255 96.1179629,46.2851357 95.4348483,47.918666 C94.7502551,49.5536646 94.4086978,51.2275743 94.4086978,52.9433317 L94.4086978,89.9521531 L77.5119617,89.9521531 L77.5119617,25.9831075 Z" id="Fill-2" fill="#FFFFFE"></path>
                <polygon id="Fill-4" fill="#FFFFFE" points="128.229665 89.9521531 145.454545 89.9521531 145.454545 25.8373206 128.229665 25.8373206"></polygon>
                <path d="M189.474051,78.13071 C194.258573,78.13071 197.826083,76.3732005 200.179511,72.8574467 C202.530741,69.3431625 203.708188,64.3138345 203.708188,57.7724018 C203.708188,51.2317039 202.530741,46.2442564 200.179511,42.8093246 C197.826083,39.3758623 194.258573,37.6587637 189.474051,37.6587637 C184.688795,37.6587637 181.119087,39.3758623 178.76859,42.8093246 C176.415162,46.2442564 175.23918,51.2317039 175.23918,57.7724018 C175.23918,64.3946565 176.393913,69.4445573 178.708509,72.9184305 C181.020173,76.3945081 184.608199,78.13071 189.474051,78.13071 M189.474051,91.8660287 C179.425821,91.8660287 171.650422,88.9226412 166.148588,83.035866 C160.64602,77.1490909 157.894737,68.7296506 157.894737,57.7724018 C157.894737,52.5402843 158.631099,47.8195492 160.107487,43.6072574 C161.582409,39.3971699 163.695512,35.8402704 166.446796,32.9372938 C169.198812,30.0357867 172.527462,27.8073058 176.435677,26.2533206 C180.341694,24.7008049 184.688795,23.923445 189.474051,23.923445 C194.336972,23.923445 198.723639,24.7008049 202.631854,26.2533206 C206.538603,27.8073058 209.868719,30.0357867 212.620002,32.9372938 C215.371286,35.8402704 217.464606,39.3971699 218.899963,43.6072574 C220.33532,47.8195492 221.052632,52.5402843 221.052632,57.7724018 C221.052632,63.0875455 220.314804,67.8494264 218.839882,72.0602487 C217.363494,76.2718057 215.251856,79.8470737 212.500572,82.791196 C209.748556,85.7345836 206.418441,87.9843721 202.511691,89.536153 C198.604209,91.087934 194.258573,91.8660287 189.474051,91.8660287" id="Fill-6" fill="#FFFFFE"></path>
                <path d="M234.449761,25.9831075 L250.864472,25.9831075 L250.864472,34.92898 C252.955956,31.5804265 255.490282,29.0680937 258.468188,27.3927156 C261.444616,25.718806 264.582212,24.8803828 267.882454,24.8803828 C269.491174,24.8803828 270.818959,24.941319 271.86581,25.0639255 C272.910443,25.186532 273.836049,25.3296954 274.641148,25.4934155 L272.589587,41.0563705 C270.658531,40.5659443 268.284634,40.3207312 265.468634,40.3207312 C263.616684,40.3207312 261.848275,40.5468558 260.158232,40.9954343 C258.468188,41.445481 256.938574,42.2817017 255.571605,43.507033 C254.123313,44.8153255 253.055762,46.2851357 252.373387,47.918666 C251.688793,49.5536646 251.347236,51.2275743 251.347236,52.9433317 L251.347236,89.9521531 L234.449761,89.9521531 L234.449761,25.9831075 Z" id="Fill-7" fill="#FFFFFE"></path>
                <polygon id="Fill-8" fill="#FFFFFE" points="284.210526 89.9521531 301.435407 89.9521531 301.435407 25.8373206 284.210526 25.8373206"></polygon>
                <path d="M320.813995,39.0288638 L311.004785,39.0288638 L311.004785,25.6601861 L320.813995,25.6601861 L320.813995,8.61244019 L337.559552,8.61244019 L337.559552,25.6601861 L351.914352,25.6601861 L351.914352,39.0288638 L337.559552,39.0288638 L337.559552,68.5870585 C337.559552,71.9406171 338.236555,74.209633 339.593491,75.3941064 C340.948961,76.5800493 342.703746,77.1730208 344.85638,77.1730208 C345.972995,77.1730208 347.109392,77.1112989 348.265572,76.9885898 C349.421019,76.8658807 350.557416,76.6417713 351.674763,76.3140572 L354.066986,88.9464803 C351.753893,89.6827348 349.500882,90.1926756 347.308683,90.4799765 C345.115018,90.7658078 343.021732,90.9090909 341.028824,90.9090909 C334.170143,90.9090909 329.086029,89.234516 325.777949,85.8802226 C322.46767,82.5288684 320.813995,76.8871894 320.813995,68.9551858 L320.813995,39.0288638 Z" id="Fill-9" fill="#FFFFFE"></path>
                <path d="M366.043819,99.1206618 C368.360384,99.7755364 370.71732,100.104079 373.113893,100.104079 C375.349716,100.104079 377.14733,99.5508607 378.506733,98.4444246 C379.864669,97.3372519 381.022952,95.3895708 381.981581,92.6035914 L383.898839,87.1936936 L357.894737,25.8373206 L377.30808,25.8373206 L391.928277,68.0122765 L405.58911,25.8373206 L423.923445,25.8373206 L398.638681,91.8654762 C397.200738,95.5545786 395.841334,98.7707569 394.56414,101.517694 C393.285478,104.263159 391.826982,106.560008 390.190119,108.403822 C388.551788,110.248374 386.595626,111.620001 384.317964,112.523124 C382.041036,113.424037 379.225338,113.875598 375.870136,113.875598 C373.792127,113.875598 371.736139,113.731216 369.698502,113.445399 C367.661598,113.157372 365.5234,112.646143 363.288311,111.908028 L366.043819,99.1206618 Z" id="Fill-10" fill="#FFFFFE"></path>
                <polygon id="Fill-11" fill="#FFFFFE" points="129.186603 14.354067 146.411483 14.354067 146.411483 0 129.186603 0"></polygon>
                <polygon id="Fill-12" fill="#FFFFFE" points="285.167464 14.354067 302.392344 14.354067 302.392344 0 285.167464 0"></polygon>
                <path d="M17.2374498,57.2753761 C17.2374498,61.5422592 17.5888412,64.9520967 18.2916238,67.5034213 C18.9936652,70.0569472 20.1308683,72.1276512 21.7017507,73.7155334 C23.3549208,75.2219669 25.0288483,76.2059549 26.7242744,76.6652961 C28.4182179,77.125371 30.1351426,77.3550416 31.871342,77.3550416 C33.772117,77.3550416 35.5920869,76.9793504 37.3282862,76.2257668 C39.0637443,75.4721831 40.5716134,74.2805377 41.8548589,72.649363 C43.1351392,71.0181883 44.1485399,68.9056592 44.8928372,66.3110421 C45.6371344,63.7186263 46.0085417,60.5810181 46.0085417,56.8982174 C46.0085417,53.0510518 45.656409,49.8297936 44.9543677,47.2351765 C44.2508437,44.6427607 43.2804402,42.5287641 42.0409333,40.8975894 C40.8006849,39.2664147 39.3313651,38.0953149 37.638163,37.3835562 C35.9419955,36.6739989 34.1442656,36.3173858 32.2434906,36.3173858 C30.0928867,36.3173858 28.2321436,36.6108945 26.6627439,37.1949769 C25.0911202,37.7819943 23.5624938,38.7014104 22.0738993,39.9561602 C20.4192464,41.5469775 19.2004968,43.5545771 18.4154263,45.9804267 C17.6296144,48.4084776 17.2374498,51.5020595 17.2374498,55.2670427 L17.2374498,57.2753761 Z M0,24.0179028 L16.8660425,24.0179028 L16.8660425,32.6771439 C21.8262944,25.5676289 28.6042922,22.0095694 37.2037425,22.0095694 C46.2138906,22.0095694 52.9533391,25.1060864 57.41764,31.2969191 C61.8826821,37.4899532 64.1148325,45.9804267 64.1148325,56.7727424 C64.1148325,61.9619766 63.4735804,66.6882008 62.1925589,70.9550839 C60.9093133,75.2219669 59.0493115,78.8827545 56.6118122,81.9359789 C54.1720888,84.990671 51.2171398,87.35415 47.7447411,89.0264159 C44.2730837,90.6994156 40.3447658,91.5366492 35.9634942,91.5366492 C32.7394416,91.5366492 29.5339224,90.9503656 26.3528671,89.7792658 C23.1688465,88.6088997 20.1716416,86.2659664 17.3619936,82.7519332 L17.3619936,113.875598 L0,113.875598 L0,24.0179028 Z" id="Fill-13" fill="#FFFFFE"></path>
                <path d="M508.807192,66.0670422 L504.351345,47.4708583 L523.997443,47.2574294 L529.579775,66.0670422 L508.807192,66.0670422 Z M498.560513,98.7201956 L459.263898,98.7201956 L459.263898,84.4160594 L469.906946,84.4160594 L469.906946,44.3471688 L460.185569,44.3471688 L460.185569,30.1427794 L487.711913,30.1427794 L487.711913,84.4160594 L498.560513,84.4160594 L498.560513,98.7201956 Z M595.706509,72.4655083 C591.677976,68.3091457 557.657943,65.1751882 552.429249,64.996964 C547.202028,64.8180065 535.204102,64.4498233 535.204102,64.4498233 L529.250449,47.0528017 L537.567587,47.0528017 C532.842828,39.9942462 527.672337,32.8447451 524.658305,30.4742909 C519.207113,26.1859104 499.819614,17.5424071 480.410749,13.4901919 C459.73689,9.17394095 439.15144,9.57952918 439.15144,9.57952918 C436.685547,9.57952918 434.686752,11.4937883 434.686752,13.8554413 L434.686752,80.5516029 C434.686752,82.9132559 436.685547,84.8260482 439.15144,84.8260482 L444.089119,84.8260482 L441.910557,94.5000244 C441.910557,94.5000244 418.50926,94.5660333 416.749908,94.4560184 C414.989819,94.3452701 407.655502,116.899056 407.655502,116.899056 C407.655502,116.899056 488.079549,116.765572 534.331057,116.761904 C534.119611,115.56861 533.997311,114.34231 533.997311,113.085207 C533.997311,102.005974 542.485374,93.0250914 554.058197,93.0250914 C565.63102,93.0250914 573.895848,102.005974 573.895848,113.085207 C573.895848,114.272634 573.781652,115.429991 573.598939,116.560211 C575.00981,116.525006 575.918219,116.486134 576.241651,116.439194 C581.354676,115.713829 593.142629,112.587939 596.807945,108.926644 C599.803559,106.380166 602.619406,79.6003408 595.706509,72.4655083 L595.706509,72.4655083 Z M554.139976,97.5166327 C545.556135,97.5166327 538.59977,104.177668 538.59977,112.394313 C538.59977,120.610225 545.556135,127.272727 554.139976,127.272727 C562.722342,127.272727 569.680918,120.610225 569.680918,112.394313 C569.680918,104.177668 562.722342,97.5166327 554.139976,97.5166327 L554.139976,97.5166327 Z" id="Fill-14" fill="#F9D420"></path>
            </g>
        </g>
    </g>
</svg>